<svg xmlns="http://www.w3.org/2000/svg" viewBox="0 0 559 760.7">
  <title>Rafeki iconsAsset 5</title>
  <g id="4c996ab9-e2de-4203-bead-0760d8c3e0aa" data-name="Layer 2">
    <g id="ffa57852-6e16-4396-8b07-4ff3c7063e84" data-name="Layer 1">
      <g>
        <path d="M212.2,204.8H211a13.8,13.8,0,0,1-12.6-14.9l.2-2.5c4.7-55.1,9.1-107.2,78-121.5A13.8,13.8,0,0,1,282.3,93c-46.7,9.6-51.1,38.2-56.1,96.7l-.2,2.5A13.8,13.8,0,0,1,212.2,204.8Z" style="fill: #ff1a4b"/>
        <g>
          <g>
            <path d="M279.9,369.8c-85.3,0-154.7-83-154.7-184.9C125.2,93.5,143.6,0,279.9,0S434.6,93.5,434.6,184.9C434.6,286.9,365.2,369.8,279.9,369.8Zm0-342.2c-105.8,0-127,60.2-127,157.3,0,86.7,57,157.3,127,157.3S407,271.6,407,184.9C407,87.8,385.7,27.6,279.9,27.6Z" style="fill: #ff1a4b"/>
            <path d="M13.9,628.1V617.4L0,617.7c0-.9-.1-1.9,0-2.9H0c.1-4,1.2-8.9,6.6-12.2l6.9-4.2,7,3.9c5.7,3.2,6.8,8.2,7,12.3v1c0,.6,0,1.1,0,1.6l-13.8.3Z" style="fill: #ff1a4b"/>
          </g>
          <path d="M279,760.7a727.1,727.1,0,0,1-125-10.8c-40.5-7.1-92.3-19.5-133-53.3-6.5-5.4-13.7-12.2-17.5-21.9S.3,657.9.3,651.7c.1-25.2,1.1-50.7,3.2-76C6.7,536,13.8,491,41.5,457.8c29.1-34.9,74.6-49.5,115-60.4,11.5-3.1,27.3-7.4,43.3-4.6,11.1,2,20.8,7.1,29.3,11.6,3,1.6,6,3.2,9.1,4.6a99.1,99.1,0,0,0,81.5.8c3.4-1.5,6.7-3.2,10-4.9,9.1-4.7,19.5-9.9,31.4-11.7s23.6.3,34.3,2.6c26,5.5,64.2,15.6,96.2,38.4a152.9,152.9,0,0,1,15.4,12.6,138.3,138.3,0,0,1,29,37.9c6.4,12.4,9.3,24.9,12.1,37.1l1.4,5.8c7.4,30.8,10.3,66,9.1,110.9l-.2,5.6c-.6,12.9-2.3,27.9-10.8,41.3-7.3,11.6-18.3,19.4-27.1,24.8-42,26.3-90.3,36.2-127.7,41.9A759.9,759.9,0,0,1,279,760.7ZM188.8,419.5c-7.5,0-15.6,2-25,4.6-38,10.3-77.1,22.8-101,51.5C40,502.7,34.1,540.8,31.1,577.9c-2,24.5-3.1,49.4-3.1,73.8,0,5.3.1,9.7,1.3,12.8s5.6,7.6,9.5,10.8c27.8,23.1,64.9,37.7,120.1,47.3,75.1,13.1,152.6,13.7,230.2,2,34.7-5.3,79.4-14.4,117.1-38,6.3-3.9,14-9.3,18.4-16.2s6.1-18.5,6.5-27.8l.2-5c1.1-42.4-1.6-75.4-8.4-103.8l-1.4-6c-2.6-11-5-21.4-9.8-30.7A111.1,111.1,0,0,0,488.3,467a124.4,124.4,0,0,0-12.7-10.3c-21.2-15.1-48.5-25.9-86-33.9-8.2-1.8-16.9-3.4-24.5-2.2s-14.9,4.9-22.9,9c-3.7,1.9-7.5,3.8-11.3,5.5a126.9,126.9,0,0,1-104.5-1c-3.5-1.6-6.9-3.4-10.3-5.2-7.4-3.9-14.4-7.6-21.2-8.8A35.3,35.3,0,0,0,188.8,419.5Z" style="fill: #ff1a4b"/>
        </g>
      </g>
    </g>
  </g>
</svg>
