<svg xmlns="http://www.w3.org/2000/svg" viewBox="0 0 999.1 956.4">
  <title>Rafeki iconsAsset 37</title>
  <g id="7d0bbfab-453d-45e6-817b-2c6e8b898eb9" data-name="Layer 2">
    <g id="0cb587e9-a2b9-4d94-b0ee-edf80b831b83" data-name="Layer 1">
      <g>
        <path d="M825.9,686.7a27.4,27.4,0,0,1-27.3-27.3V322.8a27.4,27.4,0,0,1,27.3-27.3h65.8A27.4,27.4,0,0,1,919,322.8V659.4a27.4,27.4,0,0,1-27.3,27.3Zm1.9-29.3h61.9V324.7H827.9Z" style="fill: #ff1a4b"/>
        <path d="M574.7,686.7a27.4,27.4,0,0,1-27.3-27.3V322.8a27.4,27.4,0,0,1,27.3-27.3h65.8a27.4,27.4,0,0,1,27.3,27.3V659.4a27.4,27.4,0,0,1-27.3,27.3Zm1.9-29.3h61.9V324.7H576.7Z" style="fill: #ff1a4b"/>
        <path d="M232.3,672.3a27.7,27.7,0,0,1-7.1-1l-63.5-17a27.4,27.4,0,0,1-19.3-33.5l87.1-325.1a27.4,27.4,0,0,1,33.5-19.3l63.5,17A27.4,27.4,0,0,1,345.8,327L258.7,652.1a27.4,27.4,0,0,1-26.3,20.3Zm-61.2-45.8,59.8,16L317,321.3l-59.8-16Z" style="fill: #ff1a4b"/>
        <path d="M771.3,956.4a52.2,52.2,0,0,1-31.6-10.6l-6.5-4.9-6.5,4.9a52.3,52.3,0,0,1-31.6,10.6H520.1a52.8,52.8,0,0,1-52.7-52.7V263.9l-21.1-2.8L272.7,908.8a52.8,52.8,0,0,1-50.8,39.1,53.1,53.1,0,0,1-13.7-1.8L39.1,900.7A52.7,52.7,0,0,1,1.8,836.2L215.4,39.1A52.8,52.8,0,0,1,266.2,0,53.6,53.6,0,0,1,280,1.8L449,47.1A53.6,53.6,0,0,1,462,52.6l8.7,5.1,5.6-8.4a52.7,52.7,0,0,1,43.8-23.5H695.2a52.2,52.2,0,0,1,31.6,10.6l6.5,4.9,6.5-4.9a52.1,52.1,0,0,1,31.6-10.6H946.4a52.8,52.8,0,0,1,52.7,52.7V903.7a52.8,52.8,0,0,1-52.7,52.7Zm-23.4-52.7a23.5,23.5,0,0,0,23.4,23.4H946.4a23.5,23.5,0,0,0,23.4-23.4V839.6H747.9Zm-251.2,0a23.5,23.5,0,0,0,23.4,23.4H695.2a23.5,23.5,0,0,0,23.4-23.4V839.6H496.7ZM30.1,843.8a23.4,23.4,0,0,0,16.6,28.7l169.1,45.3a23.3,23.3,0,0,0,6.1.8,23.4,23.4,0,0,0,22.6-17.4l16.6-61.9L46.7,781.8Zm24.2-90.2L268.6,811,433.9,194.3,219.5,136.9Zm693.6,56.8H969.8V171.9H747.9Zm-251.2,0H718.6V171.9H496.7ZM266.3,29.3a23.5,23.5,0,0,0-22.6,17.4l-16.6,61.9L441.4,166,458,104.1a23.4,23.4,0,0,0-16.6-28.7L272.4,30.1A23.1,23.1,0,0,0,266.3,29.3ZM771.3,55a23.5,23.5,0,0,0-23.4,23.4v64.1H969.8V78.5A23.5,23.5,0,0,0,946.4,55ZM520.1,55a23.5,23.5,0,0,0-23.4,23.4v64.1H718.6V78.5A23.5,23.5,0,0,0,695.2,55Z" style="fill: #ff1a4b"/>
      </g>
    </g>
  </g>
</svg>
