<svg xmlns="http://www.w3.org/2000/svg" viewBox="0 0 570.4 457.8">
  <title>Rafeki iconsAsset 32</title>
  <g id="bc69fc25-4d85-4b7a-be4f-f6e5fbeee31e" data-name="Layer 2">
    <g id="2478ee48-ebb8-4376-8978-8aad05bbff0c" data-name="Layer 1">
      <g>
        <path d="M74.9,457.8C33.6,457.8,0,424,0,382.4V291.8a14.9,14.9,0,0,1,14.8-15,14.9,14.9,0,0,1,14.8,15v90.6a45.4,45.4,0,0,0,45.3,45.4H495.5a45.4,45.4,0,0,0,45.3-45.4V291.8a14.8,14.8,0,1,1,29.6,0v90.6c0,41.6-33.6,75.4-74.9,75.4Z" style="fill: #ff1a4b"/>
        <path d="M165,150.8a14.7,14.7,0,0,1-10.5-4.4,15.1,15.1,0,0,1,0-21.2L274.7,4.4A14.8,14.8,0,0,1,285.2,0a14.6,14.6,0,0,1,10.5,4.4L415.8,125.2a15.1,15.1,0,0,1,0,21.2,14.7,14.7,0,0,1-20.9,0L285.2,36.1,175.5,146.4A14.7,14.7,0,0,1,165,150.8Z" style="fill: #ff1a4b"/>
        <path d="M285.2,354a14.9,14.9,0,0,1-14.8-15V15A14.8,14.8,0,1,1,300,15V339A14.9,14.9,0,0,1,285.2,354Z" style="fill: #ff1a4b"/>
      </g>
    </g>
  </g>
</svg>
