<svg xmlns="http://www.w3.org/2000/svg" viewBox="0 0 825 801.9">
  <title>Rafeki iconsAsset 34</title>
  <g id="15bbee49-b338-42be-991c-1159f4bce23c" data-name="Layer 2">
    <g id="9f42c597-770e-4de7-835e-6e4bc42229b8" data-name="Layer 1">
      <g>
        <path d="M482,505.1H327l-24,91.6h-53l99.3-391.5H459.7L559,596.7H506ZM338.2,456.7H470.9L419,251.3H390Z" style="fill: #ff1a4b"/>
        <path d="M404.8,801.9c-7.1,0-14.2-.2-21.4-.6-108.6-5.6-208.3-53-280.7-133.4S-5.1,486.3.6,380C12.2,159.2,202.8-10.6,425.7.5A399.9,399.9,0,0,1,541.3,24.2a19.2,19.2,0,1,1-13.1,36.1A361.4,361.4,0,0,0,423.7,38.8C222.3,28.2,49.4,182.3,38.9,382,33.8,478,66.6,570.5,131.2,642.3S287,758,385.4,763.1c201.8,10.5,374.3-143.5,384.9-343.2a348.3,348.3,0,0,0-4.2-74,19.2,19.2,0,0,1,37.9-6,386.8,386.8,0,0,1,4.7,82C797.3,635.6,618.2,801.9,404.8,801.9Z" style="fill: #ff1a4b"/>
        <path d="M675.8,180.7H575V133.5H675.8V28.5h47.4V133.5H825v47.2H723.1V286.9H675.8Z" style="fill: #ff1a4b"/>
      </g>
    </g>
  </g>
</svg>
