<svg xmlns="http://www.w3.org/2000/svg" viewBox="0 0 650.3 822.6">
  <title>Rafeki iconsAsset 4</title>
  <g id="759f00c2-803c-4014-8d93-4ae1b33430a5" data-name="Layer 2">
    <g id="62b70ef1-ee04-43fe-84e5-f2633ac37ca6" data-name="Layer 1">
      <g>
        <path d="M324.6,822.6c-49.3-.2-92-35.4-101.5-83.5l-1.1-5.4-162.5-.6A59.8,59.8,0,0,1,0,673.2a103.5,103.5,0,0,1,72.8-98.8l4.3-1.7a68.8,68.8,0,0,1,8-3l5.3-.7,26.4-291.3c9-86.9,69.2-158.2,153.4-181.5L278,94l-3.7-7.3a58.9,58.9,0,0,1-6.5-27.2,59.7,59.7,0,1,1,119.4.5,58.8,58.8,0,0,1-6.7,27.2l-3.8,7.2,7.8,2.3c84,24,143.7,95.7,152,182.7l23.6,286.2.7,5.1,4.9,1a67.4,67.4,0,0,1,8,3l4.4,1.7a103.6,103.6,0,0,1,72,99.4,59.8,59.8,0,0,1-59.9,59.5l-162.5-.6-1.1,5.3c-9.9,47.9-52.7,82.8-101.8,82.8Zm-71.7-88.8,3.1,8.9a73.1,73.1,0,0,0,137.8.5l3.2-8.9ZM103.5,600.6c-5.4.7-18.4,2.3-21.5,3.3a72.8,72.8,0,0,0-51.2,69.4,28.8,28.8,0,0,0,28.7,28.9l531,2.1a28.9,28.9,0,0,0,28.8-28.7,72.5,72.5,0,0,0-21.1-51.7,73.3,73.3,0,0,0-29.5-18.1c-3-1-16-2.7-21.4-3.5ZM326.6,119.4A179.6,179.6,0,0,0,147.5,280.9L121.4,569.7l408.3,1.6-23.8-289A179.5,179.5,0,0,0,327.3,119.4Zm1-88.5a28.8,28.8,0,1,0,28.8,28.9,28.8,28.8,0,0,0-28.7-28.9Z" style="fill: #ff1a4b"/>
        <path d="M214.2,361a15.4,15.4,0,0,0,15.3-13.9l5.9-57.1a91.4,91.4,0,0,1,91.1-82.1,15.6,15.6,0,0,0,15.9-15.4A15.4,15.4,0,0,0,327.1,177c-63.5,0-115.8,47.2-122.3,109.9L198.8,344a15.4,15.4,0,0,0,13.8,17Z" style="fill: #ff1a4b"/>
      </g>
    </g>
  </g>
</svg>
