<svg xmlns="http://www.w3.org/2000/svg" viewBox="0 0 728.4 753.3">
  <title>Rafeki iconsAsset 3</title>
  <g id="2a64e85a-6c32-4bd1-96bb-efe7b99c8d9f" data-name="Layer 2">
    <g id="4643d62f-e0f0-4c8d-9c9c-5cb2fdf24f5d" data-name="Layer 1">
      <g>
        <path d="M157.3,625.8c-36.6-33.1-44.9-87.7-19.9-130l2.8-4.7L19.6,382.2a59.8,59.8,0,0,1-4.3-84.3,103.5,103.5,0,0,1,120.2-25l4.3,1.6a68.8,68.8,0,0,1,7.9,3.1l4.4,3L366.3,81.3C431,22.6,523.4,9.7,601.7,48.5l7.3,3.6,2.1-7.9a58.9,58.9,0,0,1,13.4-24.6,59.7,59.7,0,1,1,88.6,80,58.8,58.8,0,0,1-23.1,15.8l-7.6,2.9,4.3,6.9c46.5,73.9,43.1,167.2-8.7,237.5L504.4,591.6l-2.8,4.2,3,4a67.4,67.4,0,0,1,3.9,7.6c.9,1.9,1.7,3.5,2.1,4.2a103.6,103.6,0,0,1-12.7,122.1,59.8,59.8,0,0,1-84.3,4.3L293,629.1l-4.4,3.2c-39.4,29.1-94.5,26.5-131-6.3Zm5.9-113.9-3.6,8.7a73.1,73.1,0,0,0,102.3,92.3l8.3-4.5ZM140.9,312.9c-4.5-3.1-15.3-10.5-18.2-11.9a72.8,72.8,0,0,0-84.4,17.6,28.8,28.8,0,0,0,2.1,40.7l394,355.9A28.9,28.9,0,0,0,475,713a72.5,72.5,0,0,0,18.8-52.6,73.3,73.3,0,0,0-9.9-33.1c-1.6-2.8-10.1-12.7-13.7-16.9ZM628.2,103.5a179.6,179.6,0,0,0-241.1.7L174.8,301.8l303,273.7L653,344.4a179.5,179.5,0,0,0-24.3-240.5Zm59.8-65.3a28.8,28.8,0,1,0,2.1,40.7A28.8,28.8,0,0,0,688,38.3Z" style="fill: #ff1a4b"/>
        <path d="M383.2,208.4a15.4,15.4,0,0,0,20.7-.1l42.6-38.6a91.4,91.4,0,0,1,122.7-.4,15.6,15.6,0,0,0,22.1-.9,15.4,15.4,0,0,0-1.1-21.8c-47.3-42.4-117.8-42.1-164.4.2l-42.6,38.6a15.4,15.4,0,0,0-1.1,21.8Z" style="fill: #ff1a4b"/>
      </g>
    </g>
  </g>
</svg>
