<svg xmlns="http://www.w3.org/2000/svg" viewBox="0 0 1047.5 961.5">
  <title>Rafeki iconsAsset 33</title>
  <g id="af32c908-32cb-4f41-affe-e32bd1759dc3" data-name="Layer 2">
    <g id="48a8d852-0bcd-41a1-8485-cbfa539f96bf" data-name="Layer 1">
      <g>
        <path d="M174.6,401.5H401.5a17.4,17.4,0,1,0,0-34.9H174.6a17.4,17.4,0,1,0,0,34.9Zm0,0" style="fill: #ff1a4b"/>
        <path d="M628.5,471.4H174.6a17.4,17.4,0,1,0,0,34.9H628.5a17.4,17.4,0,1,0,0-34.9Zm0,0" style="fill: #ff1a4b"/>
        <path d="M628.5,576.1H174.6a17.5,17.5,0,1,0,0,34.9H628.5a17.5,17.5,0,1,0,0-34.9Zm0,0" style="fill: #ff1a4b"/>
        <path d="M944,1.2,348,0A103.7,103.7,0,0,0,244.4,103.5V193l-140.9.3A103.7,103.7,0,0,0,0,296.8v369A103.7,103.7,0,0,0,103.5,769.4H209.5V944a17.5,17.5,0,0,0,11.2,16.3,18.1,18.1,0,0,0,6.2,1.2,17.7,17.7,0,0,0,13-5.7L409.3,769.3l290.3-1.2A103.6,103.6,0,0,0,803.1,664.6v-2l91.8,101a17.7,17.7,0,0,0,13,5.7,18.1,18.1,0,0,0,6.2-1.2,17.4,17.4,0,0,0,11.2-16.3V577.3H944a103.6,103.6,0,0,0,103.5-103.5V104.8A103.7,103.7,0,0,0,944,1.2ZM768.1,664.6a68.7,68.7,0,0,1-68.6,68.6l-298,1.2a17.4,17.4,0,0,0-12.9,5.7L244.4,898.8V751.9a17.4,17.4,0,0,0-17.5-17.5H103.5A68.7,68.7,0,0,1,35,665.8v-369a68.7,68.7,0,0,1,68.6-68.6l158.3-.3,437.6-.9a68.7,68.7,0,0,1,68.6,68.6Zm244.4-190.9A68.7,68.7,0,0,1,944,542.4H907.8a17.4,17.4,0,0,0-17.5,17.5V706.8l-87.3-96V295.5A103.7,103.7,0,0,0,699.5,192.1l-420.2.9V103.5a68.7,68.7,0,0,1,68.5-68.6l596,1.3h.1a68.7,68.7,0,0,1,68.6,68.6v369Zm0,0" style="fill: #ff1a4b"/>
      </g>
    </g>
  </g>
</svg>
