<svg xmlns="http://www.w3.org/2000/svg" viewBox="0 0 731.4 883.1">
  <title>Rafeki iconsAsset 36</title>
  <g id="b27a7df9-fdad-4b8e-b998-8f0d140db0d1" data-name="Layer 2">
    <g id="e11fd152-72a5-47f9-aa7f-f3643e0990a7" data-name="Layer 1">
      <g>
        <path d="M356.5,223.4H358a16.8,16.8,0,0,0,16.6-15.3l.3-2.7c5.2-61.7,9.9-91.9,58.6-101.9a16.8,16.8,0,0,0,12.9-19.8,16.9,16.9,0,0,0-19.8-13c-75.2,15.6-80,72.1-85.1,131.9v2.7a15.5,15.5,0,0,0,3.9,12.1A16.8,16.8,0,0,0,356.5,223.4Z" style="fill: #ff1a4b"/>
        <path d="M430.5,400.3c92.5,0,167.7-89.8,167.7-200.1C598.2,101.2,578.3,0,430.5,0S263,101.2,263,200.2C263,310.5,338.2,400.3,430.5,400.3Zm0-366.7c111.8,0,134.3,63.7,134.3,166.6,0,91.9-60.2,166.6-134.3,166.6S296.4,292.1,296.4,200.2C296.4,97.3,318.9,33.6,430.5,33.6Z" style="fill: #ff1a4b"/>
        <path d="M729.3,617.1c-.9-10.6-2.4-21.9-4.6-34.3-.9-5.4-2.1-10.6-3.3-15.9l-1.5-6.4c-2.5-11.5-5.7-26.1-13-40a153.2,153.2,0,0,0-31.5-41.2,150.4,150.4,0,0,0-16.8-13.5,183.6,183.6,0,0,0-17.4-11.1A227.5,227.5,0,0,0,609.6,440c-21.1-8.1-41.5-12.9-55-15.9-11.5-2.4-24-4.5-37.5-2.5s-24.7,7.8-34,12.6c-3.4,1.9-7,3.6-10.6,5.2a104.3,104.3,0,0,1-85.7-.7c-1.6-.8-3.1-1.7-4.8-2.5l-4.9-2.4c-8.7-4.6-19.8-10.5-32.1-12.6-17.4-3.3-34.6,1.3-47.1,4.8-14.4,3.7-26.2,7.2-36.9,11.2a221.4,221.4,0,0,0-31.2,12.4c-23.7,11.4-42.1,25-56.2,41.8-17.1,20.7-28.5,46.9-35.5,82h1.1C61.2,581.3,0,647.5,0,727.7c0,85.7,69.7,155.4,155.2,155.4a155.2,155.2,0,0,0,135.7-80l-.8,1.5a10.9,10.9,0,0,1-1,1.8l6.3,1.2c22.5,3.9,43.3,6.6,63.7,8.4,11.2,1.1,21.1,1.6,30.4,1.9,11.5.7,24,1.2,40.2,1.2,18.7,0,35.7-.6,51.7-1.6,9.9-.7,20.1-1.5,30.4-2.7,13.8-1.2,27.4-2.8,40.5-5.1,40.3-6.1,92.5-16.9,137.6-45.1,9.4-6.1,21.4-14.7,29.4-27.3,6.7-10.5,10.5-23.1,11.4-38.4.2-2.2.5-4.6.5-6.9l.3-5.8c.2-6.6.2-13.2.2-19C731.4,649.2,730.7,632.4,729.3,617.1ZM302,778.5c-.6,1.7-1.3,3.3-1.9,5,1-2.5,1.9-5,2.8-7.5l-.2.6A7.4,7.4,0,0,1,302,778.5Zm-7.6,17.8c1.1-2.2,2.2-4.4,3.2-6.7C296.6,791.8,295.5,794,294.4,796.3ZM140.3,573.2l2-.2a143.6,143.6,0,0,1,26.2,0,8.5,8.5,0,0,1,1.9.2h.6a156.5,156.5,0,0,0-15.7-.8c-5.2,0-10.4.3-15.4.8Zm74.2,196.8a12,12,0,0,1,0,16.9,12.4,12.4,0,0,1-8.5,3.4,12.1,12.1,0,0,1-8.4-3.4l-42.3-42.3L113,786.9a12.1,12.1,0,0,1-8.4,3.4,12.7,12.7,0,0,1-8.5-3.4,12,12,0,0,1,0-16.9l42-42h0l.3-.3L96.1,685.4A11.9,11.9,0,0,1,113,668.6l42.3,42.1,42.3-42.1a11.9,11.9,0,0,1,16.9,16.8l-42.3,42.3ZM171.2,573.3h1.2c.5-2,.9-3.9,1.3-5.7,5.5-22.9,13.9-40.9,25.6-54.8a109.1,109.1,0,0,1,24.4-21.4c9.3-6.4,20.2-12.1,34.8-18,16.2-6.4,33.3-11.2,48-15.1,9.4-2.4,18.4-4.8,26.5-4.8a29.6,29.6,0,0,1,6.3.5c7,1.2,14.4,5.1,22.2,9.4l11.1,5.5a136.9,136.9,0,0,0,113.4.9c2.7-1,5.4-2.4,8.1-3.7l4.2-1.9,2.5-1.4c7.5-3.7,14.5-7.2,21.6-8.2s15.9.5,24.1,2.1l1.3.2c25.2,5.4,46.5,12.1,64.7,20.7A183.9,183.9,0,0,1,639.1,493a106.7,106.7,0,0,1,11.2,8.8,4,4,0,0,0,1.2,1l.9.9a122.7,122.7,0,0,1,24.7,31.9c3.1,6.4,5.2,13,7.5,20.8l.3,1.2c.9,3.4,1.6,6.9,2.5,10.5l1.5,6.3a264.5,264.5,0,0,1,4.9,27.6,360.4,360.4,0,0,1,3.7,51.1c.3,10,.3,21,0,32.1v5.2c-.4,9.7-1.6,21-6.9,28.9s-11.5,12-18.9,16.8c-40.5,25.3-88,34.9-124.8,40.3-9.6,1.3-19.2,2.5-28.6,3.6s-19.5,2.2-31.5,3c-19.9,1.5-39.1,2.2-57.8,2.2-15.6,0-30.7-.5-45.7-1.5-8.5-.4-19.8-1-31-2.5-16.9-1.5-33.7-3.9-49.3-6.6a155.1,155.1,0,0,0,7.3-47.1C310.5,647.5,249.4,581.2,171.2,573.3Z" style="fill: #ff1a4b"/>
      </g>
    </g>
  </g>
</svg>
