<svg xmlns="http://www.w3.org/2000/svg" viewBox="0 0 1106 903.5">
  <title>Rafeki iconsAsset 35</title>
  <g id="742bd88b-efed-4769-add1-ad64a21888f6" data-name="Layer 2">
    <g id="bbfef469-0969-4bde-a255-fdc8db6bf87c" data-name="Layer 1">
      <g>
        <g>
          <path d="M857.9,268.7a12.7,12.7,0,0,0-15-9.9C778.9,272,775,320.2,770.7,371.2l-.2,2.3A12.7,12.7,0,0,0,782,387.2h1.2a12.6,12.6,0,0,0,12.6-11.5l.2-2.5c4.5-54,8.7-80.4,51.9-89.5A12.7,12.7,0,0,0,857.9,268.7Z" style="fill: #ff1a4b"/>
          <path d="M783.2,389.2H782a14.7,14.7,0,0,1-13.5-15.9l.2-2.3c4.4-52,8.5-100.6,73.7-114.1a14.7,14.7,0,0,1,17.3,11.4h0a14.8,14.8,0,0,1-11.4,17.4c-42,8.8-46,34.7-50.4,87.7l-.2,2.5A14.4,14.4,0,0,1,783.2,389.2Zm62.2-128.7-2.2.2c-62.3,12.9-66.3,60.1-70.6,110.2l-.2,2.7a10.8,10.8,0,0,0,9.8,11.7h1.1a10.7,10.7,0,0,0,10.6-9.7l.2-2.5c4.6-55,8.8-81.8,53.5-91.2a10.9,10.9,0,0,0,8.4-12.8h0a10.7,10.7,0,0,0-10.5-8.6Z" style="fill: #ff1a4b"/>
        </g>
        <g>
          <path d="M728.2,368.9c0-89.9,19.8-145.5,117.5-145.5S963.4,279,963.4,368.9c0,80.2-52.8,145.5-117.7,145.5a94.2,94.2,0,0,1-21.6-2.5c1.2,8.5,2.1,17.3,2.7,26.4a115.8,115.8,0,0,0,19,1.6c79,0,143.3-76.7,143.3-171.1,0-84.5-17.1-171.1-143.3-171.1-121.2,0-141.6,80.2-142.9,161.6a202.4,202.4,0,0,1,25.4,10.7Z" style="fill: #ff1a4b"/>
          <path d="M845.7,541.9a118.9,118.9,0,0,1-19.3-1.7l-1.5-.2v-1.5c-.7-10.3-1.6-18.7-2.7-26.2l-.4-2.8,2.8.7a92.2,92.2,0,0,0,21.2,2.4c63.8,0,115.8-64.4,115.8-143.6,0-88.7-19.4-143.6-115.8-143.6s-115.6,55-115.6,143.6v4.4l-2.8-1.4a197.9,197.9,0,0,0-25.1-10.6l-1.3-.5v-1.4c1.2-76.1,18.7-163.5,144.8-163.5,128,0,145.2,87.5,145.2,173C990.9,464.3,925.8,541.9,845.7,541.9Zm-17.1-5.3a113,113,0,0,0,17.1,1.4c77.9,0,141.3-75.9,141.3-169.2,0-83.6-16.8-169.2-141.3-169.2-121.3,0-139.5,79.8-140.9,158.3a205.4,205.4,0,0,1,21.5,8.9c.3-89.9,20.7-145.6,119.4-145.6s119.6,56.4,119.6,147.5c0,81.3-53.7,147.5-119.6,147.5a95.9,95.9,0,0,1-19.3-1.9C827.2,521,828,528.2,828.6,536.7Z" style="fill: #ff1a4b"/>
        </g>
        <g>
          <path d="M1095.3,685.9l-1.2-5.6c-2.7-11.1-5.4-22.7-11.3-34.2a123.2,123.2,0,0,0-26.8-35,151.3,151.3,0,0,0-14.2-11.5c-29.7-21.2-64.9-30.5-89.1-35.7-9.9-2.1-20.6-3.9-31.7-2.3s-20.6,6.4-29.1,10.7c-3.1,1.6-6.2,3.1-9.3,4.5a90.6,90.6,0,0,1-54.6,6c0,3.3,0,6.8-.2,10.3l-.2,5.6c-.2,3.1-.4,6.6-.8,10.1a118.6,118.6,0,0,0,66.4-8.7c3.5-1.4,7-3.3,10.3-4.9,7.4-3.7,14.4-7.4,21.2-8.5s15,.6,22.7,2.1c34.6,7.4,60,17.5,79.6,31.5a102.7,102.7,0,0,1,11.8,9.5,101.7,101.7,0,0,1,21.4,28c4.5,8.7,6.8,18.1,9.1,28.4l1.2,5.4c6.4,26.4,8.9,56.9,7.8,96.1l-.2,4.5c-.4,8.7-1.4,18.6-6,25.8s-11.1,11.3-17.1,15c-34.8,21.9-76.1,30.3-108.2,35-71.9,10.9-143.5,10.3-212.9-1.9-51.1-8.9-85.3-22.3-111.1-43.7-3.5-2.9-7.4-6.4-8.9-9.9s-1.2-7-1-12c0-22.7,1-45.6,2.9-68.2.2-3.3.6-6.4.8-9.7-8.7,1-17.3,1.6-25.8,2.1a51,51,0,0,0-.6,5.6c-.8,9.7-1.4,19.6-1.6,29.5a69.8,69.8,0,0,0-.4,9.3c-.6,10.5-.8,21-.8,31.5-.2,5.8-.2,13.6,2.9,21.2s10.1,15.3,16.3,20.2c37.5,31.3,85.3,42.9,122.9,49.5a677.3,677.3,0,0,0,115.6,9.9,701.9,701.9,0,0,0,105.5-8c34.6-5.4,79.4-14.4,118.1-38.8,8.2-5.2,18.3-12.4,25.1-23.1s9.3-26.2,9.9-38.1l.2-5.2C1104.8,747,1102.1,714.4,1095.3,685.9Z" style="fill: #ff1a4b"/>
          <path d="M844.9,903.5a684.8,684.8,0,0,1-116-9.9c-37.8-6.6-86-18.3-123.8-49.9-5.3-4.3-13-11.1-16.8-21-3.1-7.6-3.3-15.4-3-22,0-11.8.3-22.1.8-31.6a71.5,71.5,0,0,1,.4-9.4c.2-8.8.7-18.5,1.6-29.4.1-.6.1-1.2.2-1.8a28.7,28.7,0,0,1,.5-4l.3-1.4h1.5c9.6-.5,18-1.1,25.6-2l2.3-.3V723c-.1,1.7-.3,3.3-.4,4.9s-.3,3.2-.4,4.8c-1.9,23.4-2.9,46.3-2.9,68.1-.2,5.3.1,8.8.9,11.3s4.9,6.2,8.3,9c25.4,21.1,59.4,34.5,110.2,43.3,69.2,12.1,140.6,12.7,212.3,1.9,31.7-4.7,72.5-12.8,107.5-34.8,5.6-3.5,12.5-8.3,16.5-14.5s5.3-16.4,5.7-24.8l.2-4.5c1-39-1.4-69.4-7.8-95.5l-1.2-5.4c-2.3-10.4-4.5-19.6-8.9-28a99.6,99.6,0,0,0-21-27.5,101.7,101.7,0,0,0-11.5-9.3c-19.5-14-44.6-23.9-78.9-31.2l-1.2-.2c-7.1-1.3-14.5-2.7-20.8-1.8s-12.4,4.1-19.1,7.5l-3.2,1.6c-2.8,1.4-5.8,2.9-8.8,4.1a121.3,121.3,0,0,1-67.4,8.8l-1.8-.3.2-1.8c.4-3.1.6-6.2.7-9l.3-6.6c.2-3.5.2-7,.2-10.2v-2.4l2.3.5a88.7,88.7,0,0,0,53.5-5.9c3-1.4,6.1-2.8,9.2-4.5,9-4.6,18.7-9.3,29.7-10.9s22.8.3,32.4,2.3c24.2,5.2,59.8,14.5,89.8,36a150.7,150.7,0,0,1,14.4,11.7,125.1,125.1,0,0,1,27.2,35.6c5.9,11.4,8.6,22.7,11.2,33.6l1.5,6.6c6.8,28.6,9.5,61.3,8.5,102.9l-.2,5.2c-.6,12.3-2.4,26.6-10.2,39.1s-17.5,18.5-25.8,23.7c-38.7,24.3-83.8,33.6-118.8,39A705.2,705.2,0,0,1,844.9,903.5ZM592.3,726.8c-.1.7-.1,1.3-.2,2s-.1,1.3-.2,1.9c-.9,10.8-1.5,20.4-1.6,29.3a71.1,71.1,0,0,0-.4,9.2c-.6,9.5-.8,19.8-.8,31.5-.2,6.3-.1,13.6,2.8,20.5,3.5,8.9,10.2,15.1,15.7,19.4,37.1,31,84.7,42.5,122,49.1a689,689,0,0,0,220.6,1.8c34.6-5.4,79.3-14.6,117.4-38.5,7.9-5,17.9-12,24.5-22.5s9-25.4,9.6-37.2l.2-5.1c1-41.3-1.6-73.7-8.4-101.9h0l-1.5-6.6c-2.6-10.7-5.2-21.8-10.9-32.8a121.2,121.2,0,0,0-26.4-34.5,148.2,148.2,0,0,0-14-11.4c-29.4-21.1-64.5-30.3-88.3-35.3-9.7-2-20.1-3.9-31.1-2.3s-19.7,6-28.5,10.5c-3.1,1.7-6.2,3.1-9.3,4.6a92.7,92.7,0,0,1-53.5,6.6c0,2.6-.1,5.4-.2,8.1l-.3,6.6c-.1,2.3-.3,4.8-.6,7.3a117.4,117.4,0,0,0,63.5-8.8c2.9-1.2,5.8-2.6,8.5-4.1l3.2-1.6c7-3.5,13.6-6.9,20.3-7.9s14.7.4,22.1,1.8l1.2.2c34.9,7.5,60.4,17.6,80.3,31.9a104.6,104.6,0,0,1,12,9.7,103.4,103.4,0,0,1,21.8,28.6c4.6,8.8,6.9,18.3,9.2,28.9l1.2,5.3c6.4,26.5,8.9,57.2,7.9,96.6l-.2,4.6c-.4,9-1.5,19.1-6.3,26.7s-11.8,12-17.7,15.7c-35.6,22.3-76.9,30.6-109,35.3-72.1,10.9-144,10.3-213.6-1.9-51.5-8.9-86.1-22.6-112-44.1-4-3.3-7.8-6.8-9.4-10.7s-1.4-7.1-1.2-12.8c0-21.8,1-44.8,2.9-68.3.1-1.6.3-3.3.4-4.9l.2-2.4C607.7,725.8,600.4,726.4,592.3,726.8Z" style="fill: #ff1a4b"/>
        </g>
        <g>
          <path d="M257.6,258.8c-63.7,13.2-67.8,61.4-72.2,112.3l-.2,2.3A12.9,12.9,0,0,0,197,387.2h1a12.8,12.8,0,0,0,12.8-11.5l.2-2.5c4.5-54,8.7-80.4,51.7-89.5a12.7,12.7,0,1,0-5.2-24.9Z" style="fill: #ff1a4b"/>
          <path d="M198,389.2h-1a15,15,0,0,1-10.3-5.3,14.5,14.5,0,0,1-3.4-10.6l.2-2.3c4.4-51.7,8.6-100.6,73.7-114.1h0a14.6,14.6,0,0,1,17.5,11.4,14.9,14.9,0,0,1-11.6,17.4c-41.8,8.8-45.8,34.7-50.2,87.7l-.2,2.5A14.7,14.7,0,0,1,198,389.2Zm60-128.5c-62.3,12.9-66.3,60.4-70.6,110.6l-.2,2.3a10.6,10.6,0,0,0,2.5,7.8,11,11,0,0,0,7.5,3.9h.9a10.8,10.8,0,0,0,10.8-9.8l.2-2.5c4.5-53.5,8.9-81.8,53.3-91.2a10.8,10.8,0,1,0-4.4-21.1Z" style="fill: #ff1a4b"/>
        </g>
        <g>
          <path d="M490.7,723.9c2.3,18.8,2.9,39.8,2.3,63.9v4.5c-.4,8.7-1.4,18.6-6.2,25.8s-11.1,11.3-16.9,15c-34.8,21.9-76.3,30.3-108.4,35-71.7,10.9-143.5,10.3-213-1.9-51.1-8.9-85.3-22.3-111.1-43.7-3.5-2.9-7.2-6.4-8.7-9.9s-1.2-7-1.2-12c0-22.7,1-45.6,2.9-68.2,2.9-34.4,8.2-69.7,29.3-94.8S118,599.6,153,590.1c8.9-2.3,16.3-4.1,23.3-4.1a27.3,27.3,0,0,1,5.8.4c6.4,1,12.8,4.5,19.6,8.2,3.1,1.6,6.4,3.3,9.5,4.7a116,116,0,0,0,59,10.3,43.1,43.1,0,0,1-.2-4.9c0-3.5,0-7,.2-10.5s0-6.6.2-10.1h-.4a92.9,92.9,0,0,1-47.8-7.8l-8.5-4.3c-7.8-4.1-16.9-8.9-27.2-10.7-14.6-2.7-29.3,1.2-40,4.1-37.3,10.1-79.6,23.7-106.4,56.1C14.5,652.1,7.9,693.8,4.8,730.5c-.8,9.9-1.4,19.6-1.6,29.7v.2a.2.2,0,0,0-.2.2,60.7,60.7,0,0,0-.2,8.7c-.6,10.5-.8,21-.8,31.5,0,5.8,0,13.6,3.1,21.2s10.1,15.3,16.1,20.2c37.7,31.3,85.6,42.9,123.1,49.5a675.5,675.5,0,0,0,115.6,9.9,701.9,701.9,0,0,0,105.5-8c34.6-5.4,79.2-14.4,118.1-38.8,8-5.2,18.1-12.4,24.9-23.1s9.5-26.2,9.9-38.1l.2-5.2c.6-23.5,0-44.3-2.1-62.9C508,725.1,499.4,724.7,490.7,723.9Z" style="fill: #ff1a4b"/>
          <path d="M259.8,903.5a681.2,681.2,0,0,1-116-9.9c-37.7-6.6-85.9-18.3-124-49.9-5.8-4.8-12.9-11.5-16.7-21-3.2-8-3.2-16.1-3.2-22,0-11.8.3-22.2.8-31.7a59.8,59.8,0,0,1,.2-8.7l.2-1.8c.2-8.7.7-17.7,1.6-28.3,3.1-37,9.8-79,35.7-110.1,27.2-32.9,69.7-46.5,107.4-56.7,10.9-2.9,25.8-7,40.9-4.1,10.7,1.9,20.2,6.9,27.8,10.9l4.2,2.2,4.2,2.2a90.3,90.3,0,0,0,46.8,7.6h2.7v2.1c-.2,3.5-.2,6.7-.2,10s-.2,7.1-.2,10.5a41.1,41.1,0,0,0,.2,4.7l.2,2-2,.2a118.2,118.2,0,0,1-59.9-10.5l-9.6-4.8c-6.7-3.7-12.9-7.1-19-8a26.4,26.4,0,0,0-5.5-.4c-6.9,0-14.6,2-22.8,4.1-34.8,9.4-70.7,20.8-92.4,47-20.5,24.5-26,59.5-28.8,93.7-1.9,23.3-2.9,46.2-2.9,68.1,0,4.7,0,8.5,1.1,11.2s5.3,6.8,8.1,9.1C64,842.3,98,855.6,148.8,864.4c69.3,12.1,140.7,12.7,212.3,1.9,31.8-4.7,72.8-12.9,107.7-34.8,6.4-4.1,12.8-8.7,16.3-14.4s5.5-16.4,5.9-24.8v-4.4c.6-25-.1-45.9-2.3-63.7l-.3-2.4,2.4.2c8.7.8,17.3,1.2,25.7,1.7h1.7l.2,1.6c2,18.3,2.7,39,2.1,63.1l-.2,5.2c-.4,11.4-1.9,26.2-10.2,39.1-6.9,10.9-17.3,18.4-25.5,23.7-39,24.3-84,33.6-118.9,39A705.2,705.2,0,0,1,259.8,903.5ZM4.8,762.1a49.4,49.4,0,0,0-.1,7c-.5,9.6-.8,19.9-.8,31.7,0,5.6,0,13.2,2.9,20.5s10.1,15,15.5,19.4c37.3,31,84.9,42.5,122.2,49.1,71.6,12.5,146.7,13.1,220.6,1.8,34.5-5.3,79-14.5,117.4-38.5,7.9-5.1,17.8-12.2,24.3-22.5,7.8-12.1,9.2-26.2,9.6-37.2l.2-5.2c.6-23.3,0-43.2-1.9-60.9-7.1-.4-14.4-.7-21.8-1.4,2,17.5,2.6,37.7,2,61.8v4.5c-.4,9.1-1.5,19.3-6.5,26.8s-10.7,11.2-17.5,15.6c-35.6,22.3-77,30.6-109.2,35.3-72,11-143.9,10.3-213.6-1.9-51.5-8.9-86.1-22.6-112-44.1-3.4-2.8-7.5-6.6-9.2-10.7s-1.4-7.5-1.4-12.7c0-21.9,1-44.9,2.9-68.4,2.9-34.8,8.5-70.6,29.7-95.9,22.4-27,58.9-38.6,94.4-48.2,8.4-2.2,16.4-4.2,23.8-4.2a28.1,28.1,0,0,1,6.2.5c6.6,1.1,13.1,4.6,20,8.4,3.1,1.7,6.4,3.3,9.4,4.7a114.1,114.1,0,0,0,56,10.3c-.1-1.2-.1-2.2-.1-3.2,0-3.6,0-7.1.2-10.6s0-5.1.1-7.9a94.6,94.6,0,0,1-47-8.2l-4.3-2.2-4.2-2.2c-7.4-3.9-16.6-8.7-26.7-10.5-14.2-2.6-28.6,1.2-39.1,4.1C109.8,577.3,68,590.7,41.6,622.7c-25.2,30.3-31.7,71.6-34.8,108-.9,11.2-1.5,20.6-1.6,29.6v1.9Z" style="fill: #ff1a4b"/>
        </g>
        <g>
          <path d="M260.7,540a113.4,113.4,0,0,0,12-.6c0-2.1.2-4.3.4-6.4.6-6.4,1.2-13,2.1-19.8a83.5,83.5,0,0,1-14.4,1.2c-64.9,0-117.5-65.3-117.5-145.5,0-89.9,19.6-145.5,117.5-145.5s117.1,54.8,117.5,143.5a209.4,209.4,0,0,1,25.4-9.3c-1.4-80.8-22.3-159.8-142.9-159.8-126.2,0-143.1,86.6-143.1,171.1C117.6,463.3,181.7,540,260.7,540Z" style="fill: #ff1a4b"/>
          <path d="M260.6,541.9c-80,0-145-77.6-145-173,0-85.6,17.2-173,145-173,125.8,0,143.5,86.4,144.8,161.7V359l-1.4.4a208.8,208.8,0,0,0-25.1,9.2l-2.7,1.2v-3c-.4-87.4-19.9-141.6-115.6-141.6s-115.6,55-115.6,143.6c0,79.2,51.8,143.6,115.6,143.6a80.4,80.4,0,0,0,14.1-1.2l2.6-.5-.3,2.6c-.8,6.4-1.4,12.5-1.9,18.6v1.2c-.2,2-.4,4.2-.4,6.2v1.7l-1.7.2A117.7,117.7,0,0,1,260.6,541.9Zm0-342.2c-124.4,0-141.1,85.5-141.1,169.2,0,93.3,63.3,169.2,141.1,169.2,3.4,0,6.7-.1,10.1-.5.1-1.6.2-3.3.4-4.8v-1.2c.5-5.2,1-10.6,1.6-16.1a86,86,0,0,1-12.2.9c-65.9,0-119.4-66.2-119.4-147.5,0-91.1,20-147.5,119.4-147.5,97.8,0,118.6,54.4,119.4,142.5a209.2,209.2,0,0,1,21.5-7.8C399.9,278.5,381.6,199.7,260.6,199.7Z" style="fill: #ff1a4b"/>
        </g>
        <g>
          <path d="M485.5,191.4h1.1a12.8,12.8,0,0,0,12.7-11.7l.2-2.3c4.6-54.1,8.7-80.6,51.9-89.5a12.8,12.8,0,1,0-5.2-25c-63.8,13.2-67.8,61.4-72.2,112.4l-.2,2.3A12.8,12.8,0,0,0,485.5,191.4Z" style="fill: #ff1a4b"/>
          <path d="M486.6,193.4h-1.3a14.7,14.7,0,0,1-13.4-15.9l.2-2.3c4.4-51.8,8.5-100.6,73.7-114.1a14.7,14.7,0,1,1,6,28.8c-41.8,8.6-45.8,34.6-50.3,87.7l-.2,2.3A14.8,14.8,0,0,1,486.6,193.4ZM548.8,64.6l-2.2.2c-62.3,12.9-66.4,60.4-70.6,110.6l-.2,2.3a10.8,10.8,0,0,0,9.9,11.7h.9a10.9,10.9,0,0,0,10.8-9.9l.2-2.3c4.7-55.1,8.9-82,53.4-91.2a10.8,10.8,0,0,0-2.2-21.5Z" style="fill: #ff1a4b"/>
        </g>
        <g>
          <path d="M549.3,344.2c79,0,143.1-76.7,143.1-171.1C692.3,88.5,675.4,2,549.3,2S406.2,88.5,406.2,173.1C406.2,267.5,470.3,344.2,549.3,344.2Zm0-316.6c97.9,0,117.5,55.7,117.5,145.5,0,80.2-52.8,145.5-117.5,145.5S431.8,253.2,431.8,173.1C431.8,83.2,451.3,27.5,549.3,27.5Z" style="fill: #ff1a4b"/>
          <path d="M549.3,346.1c-80,0-145-77.6-145-173,0-85.6,17.2-173,145-173s145,87.5,145,173C694.3,268.5,629.2,346.1,549.3,346.1Zm0-342.2C424.9,3.9,408.1,89.4,408.1,173c0,93.3,63.3,169.2,141.1,169.2S690.4,266.3,690.4,173C690.4,89.4,673.6,3.9,549.3,3.9Zm0,316.6c-65.9,0-119.4-66.2-119.4-147.5,0-91.1,20-147.5,119.4-147.5S668.7,82,668.7,173C668.7,254.4,615.1,320.5,549.3,320.5Zm0-291.1C453,29.5,433.7,84.4,433.7,173c0,79.2,51.8,143.6,115.6,143.6S664.8,252.2,664.8,173C664.8,84.4,645.5,29.5,549.3,29.5Z" style="fill: #ff1a4b"/>
        </g>
        <g>
          <path d="M619.1,702c11.5-1,23.3-2.5,34.8-4.3,34.6-5.4,79.2-14.4,118.1-38.8,8-5.2,18.1-12.4,24.9-23.1s8.9-21.9,9.5-32.4a54.3,54.3,0,0,0,.4-5.8l.2-5.2c.2-5.6.2-11.1.2-16.3,0-15.5-.6-29.9-1.9-43.1-.8-10.3-2.3-20.2-3.9-29.5-.8-4.5-1.9-9.1-2.9-13.6l-1.2-5.6c-2.5-11.1-5.2-22.7-11.1-34.2a129.2,129.2,0,0,0-41.2-46.6,139.4,139.4,0,0,0-14.8-9.5,212.2,212.2,0,0,0-27-12.6A330.3,330.3,0,0,0,656,368.1c-9.9-2.1-20.4-3.9-31.7-2.3s-20.4,6.4-28.9,10.7c-3.1,1.6-6.2,3.1-9.3,4.5-23.7,10.7-51.9,10.3-75.4-.6l-8.5-4.3c-7.8-4.1-16.9-8.9-27.2-10.7-14.6-2.7-29.3,1.2-40,4.1s-21,5.8-31.7,9.7a183.8,183.8,0,0,0-26.6,10.7c-18.1,8.7-34.8,20-48,35.7-19.4,23.3-27.8,53-32.4,81.8-1.2,9.3-2.3,18.3-2.9,27.2v.8c-.8,9.7-1.4,19.4-1.6,29.1a.2.2,0,0,0-.2.2,60.7,60.7,0,0,0-.2,8.7,28.5,28.5,0,0,0-.2,6c-.4,8.5-.6,17.1-.6,25.6v1.2c0,5.6.2,12.8,3.1,20,3.5,8.9,10.1,15.3,16.1,20.2,37.7,31.3,85.6,42.9,123.1,49.5,18.1,3.1,36.3,5.6,54.8,7.2,8.7.8,17.5,1.4,26.2,1.6,11.5.8,23.1,1,34.6,1,14.8,0,29.7-.4,44.5-1.4C601.6,703.7,610.3,703.1,619.1,702ZM508.4,678.7c-8.9-.4-17.9-1-26.8-2.3-14.8-1.2-29.7-3.5-44.5-6-51.1-8.9-85.3-22.3-111.1-43.7-3.5-2.9-7.2-6.4-8.7-9.9s-1.2-7-1.2-12c0-2.9,0-5.8.2-8.7,0-9.5.2-19.2.8-28.9s1-20.4,1.9-30.7c.4-4.1.6-8,1.2-12.2a269.6,269.6,0,0,1,5.6-34.6c4.3-17.7,11.1-34.4,22.5-48a92.9,92.9,0,0,1,21.4-18.8c9.1-6.4,19.4-11.3,30.3-15.7,13.4-5.4,27.6-9.5,41.6-13.2,8.9-2.3,16.3-4.1,23.3-4.1a27.3,27.3,0,0,1,5.8.4c6.4,1,12.8,4.5,19.6,8.2,3.1,1.6,6.4,3.3,9.5,4.7,30.1,14.2,66.4,14.4,96.7.8,3.5-1.4,7-3.3,10.5-4.9,7.4-3.7,14.2-7.4,21.2-8.5s15,.6,22.7,2.1c22.5,4.7,40.8,10.7,56.3,17.9a166,166,0,0,1,23.1,13.6,91.7,91.7,0,0,1,9.9,7.8L742,434a106.7,106.7,0,0,1,21.6,28c2.9,5.8,4.7,12,6.6,18.3.8,3.3,1.6,6.6,2.5,10.1l1.2,5.4a205.6,205.6,0,0,1,4.3,23.9,318.6,318.6,0,0,1,3.3,44.3q.3,13.3,0,27.8v4.5c-.4,8.7-1.4,18.6-6.2,25.8s-11.1,11.3-16.9,15c-34.8,21.9-76.3,30.3-108.4,35q-12.4,1.9-24.7,3.1c-9.1,1.2-18.1,2.1-27.2,2.7A620.5,620.5,0,0,1,508.4,678.7Z" style="fill: #ff1a4b"/>
          <path d="M548.4,707.7c-14,0-24.7-.3-34.8-1-7.9-.2-16.7-.7-26.2-1.7-17.5-1.5-35.5-3.9-55-7.2-37.8-6.6-86-18.3-124-49.9-5.8-4.8-12.9-11.5-16.7-21-2.8-7.1-3.2-14.2-3.2-20.7v-1.2c0-8.6.2-17.2.6-25.7a29.1,29.1,0,0,1,.2-6.1,57.6,57.6,0,0,1,.2-8.6l.2-1.8c.2-8.3.7-17.3,1.6-27.5v-.7c.6-8.1,1.5-16.8,2.9-27.5,5.7-36.5,16.2-62.8,32.8-82.8,12.3-14.5,28.2-26.4,48.7-36.2a185.1,185.1,0,0,1,26.8-10.8c9.2-3.4,19.4-6.5,31.8-9.7,10.9-2.9,25.7-6.9,40.8-4.2,10.7,1.9,20.2,6.9,27.8,10.9l4.1,2.1,4.3,2.2a89.7,89.7,0,0,0,73.8.6l.4-.2c2.9-1.4,5.8-2.7,8.7-4.3,8-4.1,17.9-9.2,29.5-10.9s22.4.2,32.4,2.3a334.1,334.1,0,0,1,47.5,13.7,214.8,214.8,0,0,1,27.3,12.7,141.4,141.4,0,0,1,15.1,9.6,131.4,131.4,0,0,1,41.8,47.3c6.3,12.1,9.1,24.6,11.3,34.7l1.2,5.6c1,4.5,2.1,9.1,2.9,13.7,1.9,10.8,3.2,20.5,3.9,29.7,1.2,13.1,1.9,27.7,1.9,43.2,0,5.2,0,10.8-.2,16.4l-.2,5.2a57.9,57.9,0,0,1-.4,5.9c-.8,13.2-4,24.1-9.8,33.2-6.9,10.9-17.3,18.4-25.5,23.7-39,24.3-84,33.6-118.9,39-11.2,1.8-23,3.3-34.9,4.3-8.6,1-17.1,1.6-25.3,2.2h-1C579.1,707.2,564.5,707.7,548.4,707.7Zm-255-141.2a49.2,49.2,0,0,0-.1,6.8,30.1,30.1,0,0,0-.2,5.9c-.4,8.7-.6,17.2-.6,25.8v1.2c0,6.2.4,12.8,2.9,19.3,3.4,8.7,10.1,14.9,15.5,19.4,37.3,31,84.9,42.5,122.2,49.1,19.4,3.3,37.3,5.7,54.7,7.2,9.4.9,18.2,1.5,26.1,1.6,10,.7,20.7,1,34.6,1,15.9,0,30.5-.5,44.4-1.4h1c8.2-.6,16.6-1.2,25.1-2.2h0c11.9-1.1,23.6-2.5,34.7-4.3,34.5-5.3,79-14.5,117.4-38.5,8.4-5.4,17.8-12.3,24.3-22.5,5.4-8.5,8.4-18.8,9.2-31.4a54,54,0,0,0,.4-5.6l.2-5.2c.2-5.5.2-11.1.2-16.2,0-15.4-.6-29.9-1.8-42.9-.7-9.1-2-18.7-3.9-29.3-.8-4.5-1.8-9-2.9-13.5l-1.2-5.6c-2.3-10.3-4.9-22.1-11-33.7A127,127,0,0,0,744,405.3a136.1,136.1,0,0,0-14.7-9.4,210.3,210.3,0,0,0-26.8-12.5A327.7,327.7,0,0,0,655.6,370c-9.6-2-20-3.8-31.1-2.3s-20.5,6.6-28.3,10.5c-2.9,1.6-5.9,3-8.9,4.3l-.5.2a93.6,93.6,0,0,1-77.1-.6l-4.4-2.2-4.1-2.1c-7.4-3.9-16.6-8.7-26.7-10.6-14.3-2.6-28.6,1.3-39.1,4.1-12.4,3.2-22.4,6.3-31.6,9.6a179.3,179.3,0,0,0-26.4,10.6c-20,9.6-35.5,21.1-47.4,35.2-16.2,19.4-26.3,45.1-31.9,80.9-1.4,10.5-2.3,19.1-2.9,27v.7c-.9,10.9-1.5,20.4-1.6,29.1v1.9ZM547.9,682c-13.5,0-26.6-.5-39.6-1.4-7.4-.3-17.2-.9-27-2.3-15.3-1.3-30.5-3.6-44.6-6-51.5-8.9-86.1-22.6-112-44.1-5-4.1-7.9-7.5-9.2-10.6s-1.4-7.5-1.4-12.7c0-2.9,0-5.9.2-8.8,0-10.7.3-20.1.8-28.8s1-20.5,1.9-30.8c.1-1.3.2-2.6.4-3.9.2-2.8.5-5.5.9-8.4a266.9,266.9,0,0,1,5.6-34.8c5-20.4,12.5-36.3,22.9-48.8a96,96,0,0,1,21.9-19.2c8.2-5.7,17.9-10.8,30.6-15.8,14.2-5.7,29.1-9.9,41.9-13.3,8.4-2.2,16.3-4.2,23.8-4.2a28.1,28.1,0,0,1,6.2.5c6.5,1,13,4.6,19.8,8.3,3.3,1.8,6.6,3.4,9.7,4.8a115.1,115.1,0,0,0,95.1.8c2.4-1,4.7-2.1,7-3.2l3.5-1.7,2.2-1.1c6.7-3.4,12.9-6.5,19.5-7.5s14.7.4,22.2,1.9l1.1.2c22.1,4.7,40.7,10.6,56.7,18.1A166,166,0,0,1,731.4,423a94.7,94.7,0,0,1,10.1,8l.9.8,1,.9a108.8,108.8,0,0,1,22,28.5c2.9,5.8,4.8,11.9,6.7,18.7.8,3.4,1.7,6.7,2.5,10.2l1.2,5.4a205.1,205.1,0,0,1,4.4,24.1,318.4,318.4,0,0,1,3.3,44.5c.2,8.8.2,18.2,0,27.9v4.5c-.4,9.1-1.5,19.3-6.5,26.8s-10.7,11.3-17.5,15.6c-35.5,22.3-77,30.6-109.2,35.3-8,1.2-16.4,2.3-24.8,3.1s-17.2,2-27.3,2.7C580.8,681.4,564.1,682,547.9,682Zm-83-289.9c-7,0-14.7,2-22.8,4-12.6,3.4-27.4,7.5-41.4,13.1-12.4,4.9-21.9,9.8-29.9,15.4a91.8,91.8,0,0,0-21.1,18.4c-10,12-17.3,27.5-22.1,47.3a263.6,263.6,0,0,0-5.5,34.4c-.4,2.9-.7,5.5-.9,8.2s-.2,2.6-.4,3.9c-.8,10.2-1.4,20.5-1.9,30.6s-.8,18.1-.8,28.8c-.2,3-.2,5.8-.2,8.7,0,4.7,0,8.5,1.1,11.2s3.7,5.5,8.1,9.1c25.4,21.1,59.4,34.5,110.2,43.3,14,2.3,29,4.7,44.4,6,9.7,1.4,19.4,1.9,26.7,2.3h0a616.4,616.4,0,0,0,89.4-.6c10-.7,18.9-1.6,27.1-2.7s16.7-1.9,24.7-3.1c31.8-4.7,72.8-12.9,107.7-34.8,6.4-4.1,12.8-8.7,16.3-14.4s5.5-16.4,5.9-24.8v-4.4c.2-9.6.2-19,0-27.8a315.8,315.8,0,0,0-3.3-44.1,202.9,202.9,0,0,0-4.3-23.8l-1.2-5.4c-.8-3.5-1.6-6.8-2.5-10.1-1.9-6.5-3.7-12.5-6.4-18a105.1,105.1,0,0,0-21.2-27.5l-.8-.7-1.1-1a92.3,92.3,0,0,0-9.6-7.6,164.1,164.1,0,0,0-22.8-13.4c-15.8-7.4-34-13.2-55.8-17.8l-1.1-.2c-7.1-1.4-14.5-2.7-20.9-1.8s-12,3.9-18.4,7.1l-2.3,1.2-3.5,1.7c-2.4,1.2-4.7,2.3-7.1,3.3a119,119,0,0,1-98.2-.9c-3.1-1.4-6.5-3.1-9.6-4.8-6.8-3.7-13-7.1-19-8A26.5,26.5,0,0,0,464.9,392.1Z" style="fill: #ff1a4b"/>
        </g>
      </g>
    </g>
  </g>
</svg>
